<svg t="1652683633328" class="icon" viewBox="0 0 1024 1024" version="1.1" xmlns="http://www.w3.org/2000/svg" p-id="1971"
  width="200" height="200">
  <path
    d="M567.808 536.128a28.288 28.288 0 0 1-26.368 26.368 28.416 28.416 0 0 1-26.432-26.368c0-13.184 13.248-26.432 26.432-26.432 13.248 0 26.432 6.656 26.432 26.432h-0.064z m-118.784 0c0 52.736 39.616 92.288 92.416 92.288s92.416-39.552 92.416-92.288c0-52.8-39.616-98.88-92.416-98.88s-92.416 46.08-92.416 98.88z m-105.6-92.288c0-6.592 0-6.592 6.528-6.592l-6.656 6.592h0.064z m521.6-39.616a1111.808 1111.808 0 0 0-350.08-39.552h-39.552C521.6 298.752 567.872 239.36 614.016 193.28c72.64-65.92 105.728-72.576 118.976-65.92 13.184 6.592 26.432 65.92-6.592 177.92l65.92 19.84c39.68-131.84 33.088-224.192-19.712-250.56-32.96-19.84-92.48-19.84-198.08 72.576-65.984 52.736-125.44 131.84-184.896 217.6-26.432 6.528-46.272 6.528-72.64 13.12-46.208-131.84-46.208-210.944-26.368-224.128 13.184-6.592 65.92 6.528 151.872 92.288l46.208-46.144C389.568 94.336 310.336 61.376 257.536 94.336c-66.112 32.96-52.864 151.68-6.592 290.112-33.088 6.592-59.52 13.184-85.824 19.84C26.432 443.776 0 496.384 0 536.064c0 59.328 72.64 112 204.672 145.024l13.184-65.92C112.256 588.864 65.92 555.904 65.92 542.72c0-13.184 26.432-39.552 118.912-72.512 26.432-6.656 59.392-13.184 92.48-19.84 6.528 19.84 19.84 46.08 32.96 72.576-39.616 79.104-72.576 158.208-85.76 230.784-33.088 138.432 0 191.168 32.896 210.944 13.248 6.592 26.432 13.248 39.68 13.248 46.144 0 112.192-39.552 184.896-112.128l-46.208-46.08c-79.296 85.632-132.096 98.816-145.344 92.224-13.184-6.592-26.368-39.552 0-138.432 6.656-59.328 26.432-118.72 52.8-184.64 6.656 13.184 13.248 19.84 19.84 32.96 66.112 112.128 138.688 211.008 211.264 276.928 72.704 65.92 118.912 85.76 158.528 85.76 19.84 0 33.024-6.592 39.616-13.248 52.8-32.96 59.392-118.656 19.84-243.904a1190.208 1190.208 0 0 0-92.48-217.664l-52.8 33.024c39.552 72.512 65.92 145.024 85.76 204.416 33.088 112.064 19.84 164.8 6.72 171.392-13.248 6.592-46.272 0-118.912-65.92-65.984-59.328-138.624-158.272-198.08-263.68-19.84-26.496-33.088-46.208-39.68-72.576 6.656-19.84 19.84-39.552 33.024-59.328 6.656-6.592 13.312-19.84 13.312-26.368h85.76c125.44 0 244.352 13.184 330.176 39.552 92.416 26.368 118.848 59.328 118.848 72.512 0 19.776-39.68 52.736-158.464 79.104l13.184 65.92c138.624-32.96 204.736-85.76 204.736-145.024 6.592-46.208-26.432-98.88-158.528-138.496z"
    fill="#5584FF" p-id="1972"></path>
</svg>
